<svg xmlns="http://www.w3.org/2000/svg" xmlns:xlink="http://www.w3.org/1999/xlink" version="1.1" width="256" height="256" viewBox="0 0 256 256" xml:space="preserve">
<desc>Created with Fabric.js 1.7.22</desc>
<defs>
</defs>
<g transform="translate(128 128) scale(0.72 0.72)" style="">
	<g style="stroke: none; stroke-width: 0; stroke-dasharray: none; stroke-linecap: butt; stroke-linejoin: miter; stroke-miterlimit: 10; fill: none; fill-rule: nonzero; opacity: 1;" transform="translate(-175.05 -175.05000000000004) scale(3.89 3.89)" >
	<path d="M 45 59.623 c -22.362 0 -45 -4.644 -45 -13.518 c 0 -5.532 8.557 -8.762 15.736 -10.497 c 1.073 -0.262 2.154 0.4 2.414 1.474 c 0.26 1.074 -0.4 2.154 -1.474 2.414 C 7.967 41.602 4 44.398 4 46.105 c 0 3.881 15.972 9.518 41 9.518 c 1.104 0 2 0.896 2 2 S 46.104 59.623 45 59.623 z" style="stroke: none; stroke-width: 1; stroke-dasharray: none; stroke-linecap: butt; stroke-linejoin: miter; stroke-miterlimit: 10; fill: rgb(255,255,255); fill-rule: nonzero; opacity: 1;" transform=" matrix(1 0 0 1 0 0) " stroke-linecap="round" />
	<path d="M 59.403 58.961 c -1.02 0 -1.891 -0.775 -1.989 -1.811 c -0.104 -1.1 0.702 -2.076 1.802 -2.181 C 77.487 53.23 86 48.652 86 46.105 c 0 -1.708 -3.967 -4.504 -12.675 -6.609 c -1.074 -0.259 -1.733 -1.34 -1.475 -2.414 c 0.26 -1.074 1.343 -1.734 2.414 -1.474 C 81.443 37.344 90 40.573 90 46.105 c 0 9.235 -23.272 12.168 -30.405 12.847 C 59.53 58.958 59.466 58.961 59.403 58.961 z" style="stroke: none; stroke-width: 1; stroke-dasharray: none; stroke-linecap: butt; stroke-linejoin: miter; stroke-miterlimit: 10; fill: rgb(255,255,255); fill-rule: nonzero; opacity: 1;" transform=" matrix(1 0 0 1 0 0) " stroke-linecap="round" />
	<path d="M 39.945 64.697 c -0.512 0 -1.023 -0.195 -1.414 -0.586 c -0.781 -0.781 -0.781 -2.047 0 -2.828 l 3.659 -3.66 l -3.659 -3.659 c -0.781 -0.781 -0.781 -2.047 0 -2.828 c 0.78 -0.781 2.047 -0.781 2.828 0 l 5.074 5.073 c 0.375 0.375 0.586 0.884 0.586 1.414 s -0.211 1.039 -0.586 1.414 l -5.074 5.074 C 40.969 64.502 40.457 64.697 39.945 64.697 z" style="stroke: none; stroke-width: 1; stroke-dasharray: none; stroke-linecap: butt; stroke-linejoin: miter; stroke-miterlimit: 10; fill: rgb(255,255,255); fill-rule: nonzero; opacity: 1;" transform=" matrix(1 0 0 1 0 0) " stroke-linecap="round" />
	<path d="M 29.176 37.315 h -2.281 c -1.104 0 -2 -0.896 -2 -2 s 0.896 -2 2 -2 h 2.281 c 1.13 0 2.049 -0.919 2.049 -2.05 c 0 -1.13 -0.919 -2.049 -2.049 -2.049 h -4.049 c -1.104 0 -2 -0.896 -2 -2 s 0.896 -2 2 -2 h 4.049 c 3.335 0 6.049 2.714 6.049 6.049 C 35.225 34.602 32.511 37.315 29.176 37.315 z" style="stroke: none; stroke-width: 1; stroke-dasharray: none; stroke-linecap: butt; stroke-linejoin: miter; stroke-miterlimit: 10; fill: rgb(255,255,255); fill-rule: nonzero; opacity: 1;" transform=" matrix(1 0 0 1 0 0) " stroke-linecap="round" />
	<path d="M 29.176 45.414 h -4.049 c -1.104 0 -2 -0.896 -2 -2 s 0.896 -2 2 -2 h 4.049 c 1.13 0 2.049 -0.919 2.049 -2.049 s -0.919 -2.049 -2.049 -2.049 h -2.281 c -1.104 0 -2 -0.896 -2 -2 s 0.896 -2 2 -2 h 2.281 c 3.335 0 6.049 2.714 6.049 6.049 S 32.511 45.414 29.176 45.414 z" style="stroke: none; stroke-width: 1; stroke-dasharray: none; stroke-linecap: butt; stroke-linejoin: miter; stroke-miterlimit: 10; fill: rgb(255,255,255); fill-rule: nonzero; opacity: 1;" transform=" matrix(1 0 0 1 0 0) " stroke-linecap="round" />
	<path d="M 43.599 45.414 c -3.335 0 -6.049 -2.714 -6.049 -6.049 s 2.714 -6.049 6.049 -6.049 c 3.336 0 6.05 2.714 6.05 6.049 S 46.935 45.414 43.599 45.414 z M 43.599 37.315 c -1.13 0 -2.049 0.919 -2.049 2.049 s 0.919 2.049 2.049 2.049 c 1.13 0 2.05 -0.919 2.05 -2.049 S 44.729 37.315 43.599 37.315 z" style="stroke: none; stroke-width: 1; stroke-dasharray: none; stroke-linecap: butt; stroke-linejoin: miter; stroke-miterlimit: 10; fill: rgb(255,255,255); fill-rule: nonzero; opacity: 1;" transform=" matrix(1 0 0 1 0 0) " stroke-linecap="round" />
	<path d="M 40.035 39.439 c -0.256 0 -0.517 -0.05 -0.769 -0.154 c -1.02 -0.425 -1.501 -1.596 -1.077 -2.616 l 4.261 -10.222 c 0.425 -1.02 1.597 -1.5 2.616 -1.077 c 1.02 0.425 1.501 1.596 1.077 2.616 l -4.261 10.222 C 41.562 38.976 40.818 39.439 40.035 39.439 z" style="stroke: none; stroke-width: 1; stroke-dasharray: none; stroke-linecap: butt; stroke-linejoin: miter; stroke-miterlimit: 10; fill: rgb(255,255,255); fill-rule: nonzero; opacity: 1;" transform=" matrix(1 0 0 1 0 0) " stroke-linecap="round" />
	<path d="M 57.985 45.414 c -3.336 0 -6.05 -2.714 -6.05 -6.049 v -8.099 c 0 -3.335 2.714 -6.049 6.05 -6.049 c 3.335 0 6.049 2.714 6.049 6.049 v 8.099 C 64.034 42.7 61.32 45.414 57.985 45.414 z M 57.985 29.216 c -1.13 0 -2.05 0.919 -2.05 2.049 v 8.099 c 0 1.13 0.92 2.049 2.05 2.049 s 2.049 -0.919 2.049 -2.049 v -8.099 C 60.034 30.136 59.115 29.216 57.985 29.216 z" style="stroke: none; stroke-width: 1; stroke-dasharray: none; stroke-linecap: butt; stroke-linejoin: miter; stroke-miterlimit: 10; fill: rgb(255,255,255); fill-rule: nonzero; opacity: 1;" transform=" matrix(1 0 0 1 0 0) " stroke-linecap="round" />
	<path d="M 69.34 23.492 L 69.34 23.492 c 1.324 0 2.397 1.073 2.397 2.397 v 1.862 c 0 1.324 -1.073 2.397 -2.397 2.397 l 0 0 c -1.324 0 -2.397 -1.073 -2.397 -2.397 v -1.862 C 66.944 24.566 68.017 23.492 69.34 23.492 z" style="stroke: none; stroke-width: 1; stroke-dasharray: none; stroke-linecap: butt; stroke-linejoin: miter; stroke-miterlimit: 10; fill: rgb(255,255,255); fill-rule: nonzero; opacity: 1;" transform=" matrix(1 0 0 1 0 0) " stroke-linecap="round" />
</g>
</g>
</svg>